<svg width="671" height="373" viewBox="0 0 671 373" fill="none" xmlns="http://www.w3.org/2000/svg">
<path d="M198 0C273.992 0 465.91 243.487 382.551 319.48C301.907 393.147 77.4209 388.494 13.4482 319.48C-48.1982 252.793 126.661 0 198 0Z" fill="#0BC0D3"/>
<path d="M226.045 209.125H178.938C173.005 209.125 168.12 214.021 168.12 219.965C168.12 225.909 173.005 230.804 178.938 230.804H198.827C192.895 241.993 183.823 247.588 170.912 247.588C161.49 247.588 153.813 244.441 147.881 238.497C141.949 232.553 139.158 225.21 139.158 216.119C139.158 206.328 141.949 198.636 147.881 192.692C153.813 186.747 161.141 183.6 170.563 183.6C183.474 183.6 191.849 189.195 196.036 200.034H224.649C222.556 187.447 216.275 177.307 206.155 169.964C196.036 162.621 183.823 158.775 170.214 158.775C153.464 158.775 139.507 164.369 128.34 175.209C117.174 186.048 111.94 200.034 111.94 216.818C111.94 232.902 117.523 245.84 128.34 256.679C139.158 267.169 152.767 272.414 169.167 272.763H169.516C169.865 272.763 169.865 272.763 170.214 272.763C171.61 272.763 173.005 272.763 174.401 272.763C235.118 269.616 226.045 209.125 226.045 209.125Z" fill="#2C006A"/>
<path d="M337.715 174.834C348.831 185.474 354.241 198.873 354.241 215.326C354.241 231.779 348.831 245.67 337.715 256.507C326.894 267.345 313.123 272.763 296.597 272.763C280.071 272.763 266.103 267.345 254.987 256.507C243.872 245.67 238.462 231.877 238.462 215.326C238.462 198.774 243.872 185.474 254.987 174.834C266.103 164.193 279.875 158.775 296.597 158.775C313.32 158.775 326.894 164.193 337.715 174.834ZM323.255 215.424C323.255 199.168 312.631 186.853 296.597 186.853C280.563 186.853 269.447 199.07 269.447 215.424C269.447 231.779 280.268 244.882 296.597 244.882C312.926 244.882 323.255 231.976 323.255 215.424Z" fill="#2C006A"/>
<path d="M443.785 272.763H415.307L366.177 158.775H397.119L429.438 235.565L461.756 158.775H492.698L443.713 272.763H443.785Z" fill="#2C006A"/>
<path d="M504.634 168.467C504.634 160.325 511.225 153.734 519.367 153.734C527.509 153.734 534.101 160.325 534.101 168.467V263.071C534.101 271.213 527.509 277.804 519.367 277.804C511.225 277.804 504.634 271.213 504.634 263.071V168.467Z" fill="#2C006A"/>
<path d="M628.721 215.575L665.942 178.742C671.758 172.926 671.758 163.621 665.942 157.805C660.126 151.989 650.821 151.989 645.005 157.805L607.785 194.638L628.721 215.575Z" fill="#0BC0D3"/>
<path d="M665.937 252.796L571.335 158.192C565.519 152.377 556.214 152.377 550.398 158.192C544.583 164.008 544.583 173.313 550.398 179.129L587.231 215.963L550.398 252.796C544.583 258.612 544.583 267.917 550.398 273.733C556.214 279.548 565.519 279.548 571.335 273.733L608.168 236.899L645 273.733C650.816 279.548 660.121 279.548 665.937 273.733C671.753 267.917 671.753 258.612 665.937 252.796Z" fill="#2C006A"/>
</svg>
